<mxfile modified="2023-04-10T13:48:42.675Z" host="app.diagrams.net" agent="Mozilla/5.0 (Macintosh; Intel Mac OS X 10_15_7) AppleWebKit/537.36 (KHTML, like Gecko) Chrome/111.0.0.0 Safari/537.36" etag="FRMhgAnpQG_V7vPpHQXb" version="21.1.2" type="github">
  <diagram id="f106602c-feb2-e66a-4537-3a34d633f6aa" name="Page-1">
    <mxGraphModel dx="1026" dy="604" grid="1" gridSize="10" guides="1" tooltips="1" connect="1" arrows="1" fold="1" page="1" pageScale="1" pageWidth="1169" pageHeight="827" background="none" math="0" shadow="0">
      <root>
        <mxCell id="0" />
        <mxCell id="1" parent="0" />
        <mxCell id="v0CTncaFIIi6fotuZivB-25" value="" style="group" vertex="1" connectable="0" parent="1">
          <mxGeometry x="40" y="40" width="120" height="240" as="geometry" />
        </mxCell>
        <mxCell id="v0CTncaFIIi6fotuZivB-26" value="" style="group" vertex="1" connectable="0" parent="v0CTncaFIIi6fotuZivB-25">
          <mxGeometry width="120" height="140" as="geometry" />
        </mxCell>
        <mxCell id="v0CTncaFIIi6fotuZivB-27" value="Customer Service" style="rounded=1;whiteSpace=wrap;html=1;" vertex="1" parent="v0CTncaFIIi6fotuZivB-26">
          <mxGeometry width="120" height="40" as="geometry" />
        </mxCell>
        <UserObject label="" id="v0CTncaFIIi6fotuZivB-28">
          <mxCell style="group" vertex="1" connectable="0" parent="v0CTncaFIIi6fotuZivB-26">
            <mxGeometry x="10" y="60" width="100" height="80" as="geometry" />
          </mxCell>
        </UserObject>
        <mxCell id="v0CTncaFIIi6fotuZivB-29" value="" style="sketch=0;pointerEvents=1;shadow=0;dashed=0;html=1;strokeColor=none;fillColor=#505050;labelPosition=center;verticalLabelPosition=bottom;verticalAlign=top;outlineConnect=0;align=center;shape=mxgraph.office.servers.server_generic;" vertex="1" parent="v0CTncaFIIi6fotuZivB-28">
          <mxGeometry x="50" width="40" height="80" as="geometry" />
        </mxCell>
        <mxCell id="v0CTncaFIIi6fotuZivB-30" value="" style="shape=image;html=1;verticalAlign=top;verticalLabelPosition=bottom;labelBackgroundColor=#ffffff;imageAspect=0;aspect=fixed;image=https://cdn3.iconfinder.com/data/icons/popular-services-brands/512/laravel-128.png" vertex="1" parent="v0CTncaFIIi6fotuZivB-28">
          <mxGeometry x="11.879999999999995" y="44" width="30" height="30" as="geometry" />
        </mxCell>
        <mxCell id="v0CTncaFIIi6fotuZivB-31" value="" style="shape=image;html=1;verticalAlign=top;verticalLabelPosition=bottom;labelBackgroundColor=#ffffff;imageAspect=0;aspect=fixed;image=https://cdn4.iconfinder.com/data/icons/logos-3/568/php-logo-128.png" vertex="1" parent="v0CTncaFIIi6fotuZivB-28">
          <mxGeometry x="11.879999999999995" y="10" width="30" height="30" as="geometry" />
        </mxCell>
        <mxCell id="v0CTncaFIIi6fotuZivB-32" value="DB_CRM" style="shape=cylinder3;whiteSpace=wrap;html=1;boundedLbl=1;backgroundOutline=1;size=15;fillColor=#f8cecc;strokeColor=#b85450;" vertex="1" parent="v0CTncaFIIi6fotuZivB-25">
          <mxGeometry y="160" width="120" height="80" as="geometry" />
        </mxCell>
      </root>
    </mxGraphModel>
  </diagram>
</mxfile>
